g Ground_Bridge_Cheap
v -0.3333333 0.09999973 -2.5
v -0.5 0.09999993 2.5
v -0.5 0.09999973 -2.5
v -0.3333333 0.09999993 2.5
v 0.3333333 0.09999973 -2.5
v 0.3333333 0.09999993 2.5
v 0.5 0.09999973 -2.5
v 0.5 0.09999993 2.5
v -0.3333333 -4.269527E-08 3
v -0.5 -4.269528E-08 3
v -0.5 0.09999993 2.5
v -0.3333333 0.09999993 2.5
v 0.3333333 -4.269525E-08 3
v 0.3333333 0.09999993 2.5
v 0.5 -4.269525E-08 3
v 0.5 0.09999993 2.5
v -0.5 -2.972374E-07 -3
v -0.5 0.09999973 -2.5
v -0.5 0.09999993 2.5
v -0.5 -4.269528E-08 3
v 0.3333333 -2.972374E-07 -3
v 0.5 -2.972374E-07 -3
v 0.5 0.09999973 -2.5
v 0.3333333 0.09999973 -2.5
v -0.3333333 -2.972374E-07 -3
v -0.3333333 0.09999973 -2.5
v -0.5 -2.972374E-07 -3
v -0.5 0.09999973 -2.5
v 0.5 -4.269525E-08 3
v 0.5 0.09999993 2.5
v 0.5 0.09999973 -2.5
v 0.5 -2.972374E-07 -3
v 0.3333333 -4.269525E-08 3
v 0.5 -4.269525E-08 3
v 0.5 -2.972374E-07 -3
v 0.3333333 -2.972374E-07 -3
v -0.3333333 -4.269527E-08 3
v -0.3333333 -2.972374E-07 -3
v -0.5 -4.269528E-08 3
v -0.5 -2.972374E-07 -3
vt 0.9038754 0.04079419
vt 0.913188 0.320172
vt 0.9131879 0.04079419
vt 0.9038754 0.320172
vt 0.866625 0.04079419
vt 0.866625 0.320172
vt 0.8573123 0.04079419
vt 0.8573124 0.320172
vt 0.9038754 0.348663
vt 0.913188 0.348663
vt 0.913188 0.320172
vt 0.9038754 0.320172
vt 0.866625 0.348663
vt 0.866625 0.320172
vt 0.8573124 0.348663
vt 0.8573124 0.320172
vt 0.9832673 0.3481098
vt 0.9888548 0.320172
vt 0.9888548 0.04079419
vt 0.9832673 0.01285648
vt 0.866625 0.01230317
vt 0.8573124 0.01230317
vt 0.8573124 0.04079419
vt 0.866625 0.04079419
vt 0.9038754 0.01230317
vt 0.9038754 0.04079419
vt 0.9131879 0.01230317
vt 0.9131879 0.04079419
vt 0.9273917 0.01285648
vt 0.9218042 0.04079419
vt 0.9218042 0.320172
vt 0.9273918 0.3481098
vt 0.9367043 0.01285648
vt 0.9273917 0.01285648
vt 0.9273918 0.3481098
vt 0.9367043 0.3481098
vt 0.9739547 0.01285648
vt 0.9739547 0.3481098
vt 0.9832673 0.01285648
vt 0.9832673 0.3481098
vn 0 1 0
vn 0 1 0
vn 0 1 0
vn 0 1 0
vn 0 1 0
vn 0 1 0
vn 0 1 0
vn 0 1 0
vn 0 0.9805807 0.1961161
vn 0 0.9805807 0.1961161
vn 0 0.9805807 0.1961161
vn 0 0.9805807 0.1961161
vn 0 0.9805807 0.1961161
vn 0 0.9805807 0.1961161
vn 0 0.9805807 0.1961161
vn 0 0.9805807 0.1961161
vn -1 0 0
vn -1 0 0
vn -1 0 0
vn -1 0 0
vn 0 0.9805806 -0.1961162
vn 0 0.9805806 -0.1961162
vn 0 0.9805806 -0.1961162
vn 0 0.9805806 -0.1961162
vn 0 0.9805807 -0.1961162
vn 0 0.9805807 -0.1961162
vn 0 0.9805806 -0.1961162
vn 0 0.9805806 -0.1961162
vn 1 0 0
vn 1 0 0
vn 1 0 0
vn 1 0 0
vn 0 -1 0
vn 0 -1 0
vn 0 -1 0
vn 0 -1 0
vn 0 -1 0
vn 0 -1 0
vn 0 -1 0
vn 0 -1 0
g Ground_Bridge_Cheap_0
f 3/3/3 2/2/2 1/1/1
f 2/2/2 4/4/4 1/1/1
f 1/1/1 4/4/4 5/5/5
f 4/4/4 6/6/6 5/5/5
f 5/5/5 6/6/6 7/7/7
f 6/6/6 8/8/8 7/7/7
f 11/11/11 10/10/10 9/9/9
f 12/12/12 11/11/11 9/9/9
f 12/12/12 9/9/9 13/13/13
f 14/14/14 12/12/12 13/13/13
f 14/14/14 13/13/13 15/15/15
f 16/16/16 14/14/14 15/15/15
f 19/19/19 18/18/18 17/17/17
f 20/20/20 19/19/19 17/17/17
f 23/23/23 22/22/22 21/21/21
f 24/24/24 23/23/23 21/21/21
f 24/24/24 21/21/21 25/25/25
f 26/26/26 24/24/24 25/25/25
f 26/26/26 25/25/25 27/27/27
f 28/28/28 26/26/26 27/27/27
f 31/31/31 30/30/30 29/29/29
f 32/32/32 31/31/31 29/29/29
f 35/35/35 34/34/34 33/33/33
f 36/36/36 35/35/35 33/33/33
f 36/36/36 33/33/33 37/37/37
f 38/38/38 36/36/36 37/37/37
f 37/37/37 39/39/39 38/38/38
f 39/39/39 40/40/40 38/38/38
