g Ground_Stairs
v 3 1.8 1.6
v 3 0.6 -0.8
v 3 0.1999999 -1.6
v 3 0.9999999 0
v 3 0.9999999 -0.4
v 3 0.8 -0.4
v 3 1.2 0.4000001
v 3 1.2 0
v 3 1.4 0.8
v 3 1.4 0.3999999
v 3 1.8 1.6
v 3 1.6 1.2
v 3 1.6 0.8
v 3 1.8 1.2
v 3 2 2
v 3 2 1.6
v 3 -7.86805E-08 2
v 3 0.1999999 -1.6
v 3 0.1999999 -2
v 3 -9.53694E-08 -2
v 3 0.3999999 -1.2
v 3 0.3999999 -1.6
v 3 0.6 -0.8
v 3 0.6 -1.2
v 3 1.8 1.6
v 3 0.8 -0.4
v 3 0.8 -0.8
v -3 0.9999999 -0.4
v -3 0.9999999 0
v -3 0.8 -0.4
v -3 1.2 0
v -3 1.2 0.4000001
v -3 1.4 0.3999999
v -3 1.4 0.8
v -3 1.6 0.8
v -3 1.6 1.2
v -3 1.8 1.2
v -3 1.8 1.6
v -3 2 1.6
v -3 2 2
v -3 -7.86805E-08 2
v -3 0.1999999 -1.6
v -3 0.1999999 -2
v -3 -9.53694E-08 -2
v -3 0.3999999 -1.6
v -3 0.3999999 -1.2
v -3 0.6 -1.2
v -3 0.6 -0.8
v -3 0.8 -0.4
v -3 1.8 1.6
v -3 0.8 -0.8
v 2.625 0.1999999 -2
v 3 0.1999999 -2
v 3 0.1999999 -1.6
v 2.625 0.1999999 -1.6
v -2.625 0.1999999 -1.6
v -2.625 0.1999999 -2
v -3 0.1999999 -2
v -3 0.1999999 -1.6
v 2.625 0.3999999 -1.6
v 3 0.1999999 -1.6
v 3 0.3999999 -1.6
v 2.625 0.1999999 -1.6
v -2.625 0.1999999 -1.6
v -2.625 0.3999999 -1.6
v -3 0.3999999 -1.6
v -3 0.1999999 -1.6
v 2.625 0.3999999 -1.6
v 3 0.3999999 -1.6
v 3 0.3999999 -1.2
v 2.625 0.3999999 -1.2
v -2.625 0.3999999 -1.2
v -2.625 0.3999999 -1.6
v -3 0.3999999 -1.6
v -3 0.3999999 -1.2
v 2.625 0.1999999 -2
v 3 -9.53694E-08 -2
v 3 0.1999999 -2
v 2.625 -9.53694E-08 -2
v -2.625 -9.53694E-08 -2
v -2.625 0.1999999 -2
v -3 0.1999999 -2
v -3 -9.53694E-08 -2
v 2.625 0.6 -1.2
v 3 0.3999999 -1.2
v 3 0.6 -1.2
v 2.625 0.3999999 -1.2
v -2.625 0.3999999 -1.2
v -2.625 0.6 -1.2
v -3 0.6 -1.2
v -3 0.3999999 -1.2
v 2.625 0.6 -1.2
v 3 0.6 -1.2
v 3 0.6 -0.8
v 2.625 0.6 -0.8
v -2.625 0.6 -0.8
v -2.625 0.6 -1.2
v -3 0.6 -1.2
v -3 0.6 -0.8
v 2.625 0.8 -0.8
v 3 0.6 -0.8
v 3 0.8 -0.8
v 2.625 0.6 -0.8
v -2.625 0.6 -0.8
v -2.625 0.8 -0.8
v -3 0.8 -0.8
v -3 0.6 -0.8
v 2.625 0.8 -0.8
v 3 0.8 -0.8
v 3 0.8 -0.4
v 2.625 0.8 -0.4
v -2.625 0.8 -0.4
v -2.625 0.8 -0.8
v -3 0.8 -0.8
v -3 0.8 -0.4
v 2.625 0.9999999 -0.4
v 3 0.8 -0.4
v 3 0.9999999 -0.4
v 2.625 0.8 -0.4
v -2.625 0.8 -0.4
v -2.625 0.9999999 -0.4
v -3 0.9999999 -0.4
v -3 0.8 -0.4
v 2.625 0.9999999 -0.4
v 3 0.9999999 -0.4
v 3 0.9999999 0
v 2.625 0.9999999 0
v -2.625 0.9999999 0
v -2.625 0.9999999 -0.4
v -3 0.9999999 -0.4
v -3 0.9999999 0
v 2.625 1.4 0.3999999
v 3 1.4 0.3999999
v 3 1.4 0.8
v 2.625 1.4 0.8
v -2.625 1.4 0.8
v -2.625 1.4 0.3999999
v -3 1.4 0.3999999
v -3 1.4 0.8
v 2.625 1.4 0.3999999
v 3 1.2 0.4000001
v 3 1.4 0.3999999
v 2.625 1.2 0.4000001
v -2.625 1.2 0.4000001
v -2.625 1.4 0.3999999
v -3 1.4 0.3999999
v -3 1.2 0.4000001
v 2.625 1.2 0
v 3 1.2 0
v 3 1.2 0.4000001
v 2.625 1.2 0.4000001
v -2.625 1.2 0.4000001
v -2.625 1.2 0
v -3 1.2 0
v -3 1.2 0.4000001
v 2.625 1.2 0
v 3 0.9999999 0
v 3 1.2 0
v 2.625 0.9999999 0
v -2.625 0.9999999 0
v -2.625 1.2 0
v -3 1.2 0
v -3 0.9999999 0
v 2.625 1.6 0.8
v 3 1.4 0.8
v 3 1.6 0.8
v 2.625 1.4 0.8
v -2.625 1.4 0.8
v -2.625 1.6 0.8
v -3 1.6 0.8
v -3 1.4 0.8
v 2.625 1.6 0.8
v 3 1.6 0.8
v 3 1.6 1.2
v 2.625 1.6 1.2
v -2.625 1.6 1.2
v -2.625 1.6 0.8
v -3 1.6 0.8
v -3 1.6 1.2
v 2.625 1.8 1.2
v 3 1.6 1.2
v 3 1.8 1.2
v 2.625 1.6 1.2
v -2.625 1.6 1.2
v -2.625 1.8 1.2
v -3 1.8 1.2
v -3 1.6 1.2
v 2.625 1.8 1.2
v 3 1.8 1.2
v 3 1.8 1.6
v 2.625 1.8 1.6
v -2.625 1.8 1.6
v -2.625 1.8 1.2
v -3 1.8 1.2
v -3 1.8 1.6
v 2.625 2 1.6
v 3 1.8 1.6
v 3 2 1.6
v 2.625 1.8 1.6
v -2.625 1.8 1.6
v -2.625 2 1.6
v -3 2 1.6
v -3 1.8 1.6
v 2.625 2 1.6
v 3 2 1.6
v 3 2 2
v 2.625 2 2
v -2.625 2 2
v -2.625 2 1.6
v -3 2 1.6
v -3 2 2
v -2.625 2 2
v -3 -7.86805E-08 2
v -3 2 2
v -2.625 -7.86805E-08 2
v 2.625 -7.86805E-08 2
v 2.625 2 2
v 3 2 2
v 3 -7.86805E-08 2
v 3 1.8 1.6
v 3 0.9999999 0
v 3 0.8 -0.4
v 3 1.2 0.4000001
v -3 0.1999999 -1.6
v -3 0.3999999 -1.2
v -3 0.6 -0.8
v -3 1.8 1.6
v -3 0.8 -0.4
v -3 0.9999999 0
v -3 1.2 0.4000001
v -3 1.4 0.8
v -3 1.6 1.2
vt 0.3850837 0.7762164
vt 0.4560487 0.9181461
vt 0.4797037 0.9654561
vt 0.4323937 0.8708363
vt 0.4323937 0.8944913
vt 0.4442213 0.8944913
vt 0.4205663 0.8471813
vt 0.4205663 0.8708363
vt 0.4087387 0.8235264
vt 0.4087387 0.8471813
vt 0.3850837 0.7762164
vt 0.3969113 0.7998714
vt 0.3969113 0.8235264
vt 0.3850837 0.7998714
vt 0.3732563 0.7525615
vt 0.3732563 0.7762164
vt 0.4915311 0.7525613
vt 0.4797037 0.9654561
vt 0.4797037 0.9891112
vt 0.4915311 0.9891111
vt 0.4678762 0.9418012
vt 0.4678762 0.9654561
vt 0.4560487 0.9181461
vt 0.4560487 0.9418012
vt 0.3850837 0.7762164
vt 0.4442213 0.8944913
vt 0.4442213 0.9181463
vt 0.4323937 0.599005
vt 0.4323937 0.62266
vt 0.4442211 0.599005
vt 0.4205662 0.62266
vt 0.4205662 0.646315
vt 0.4087387 0.6463151
vt 0.4087387 0.66997
vt 0.3969112 0.66997
vt 0.3969112 0.693625
vt 0.3850837 0.693625
vt 0.3850837 0.7172799
vt 0.3732563 0.7172799
vt 0.3732563 0.740935
vt 0.4915311 0.7409348
vt 0.4797036 0.5280401
vt 0.4797036 0.5043851
vt 0.4915311 0.5043851
vt 0.4678761 0.5280402
vt 0.4678761 0.5516951
vt 0.4560487 0.5516951
vt 0.4560487 0.5753501
vt 0.4442211 0.599005
vt 0.3850837 0.7172799
vt 0.4442212 0.5753501
vt 0.3429365 0.9772836
vt 0.365113 0.9772836
vt 0.3651129 0.9536287
vt 0.3429364 0.9536287
vt 0.03246492 0.9536287
vt 0.03246489 0.9772837
vt 0.01028836 0.9772837
vt 0.01028836 0.9536288
vt 0.3429365 0.9418012
vt 0.3651129 0.9536287
vt 0.365113 0.9418012
vt 0.3429364 0.9536287
vt 0.03246492 0.9536287
vt 0.03246489 0.9418012
vt 0.01028836 0.9418013
vt 0.01028836 0.9536288
vt 0.3429365 0.9418012
vt 0.365113 0.9418012
vt 0.3651129 0.9181461
vt 0.3429364 0.9181461
vt 0.03246492 0.9181463
vt 0.03246489 0.9418012
vt 0.01028836 0.9418013
vt 0.01028836 0.9181463
vt 0.3429365 0.9772836
vt 0.3651129 0.9891112
vt 0.365113 0.9772836
vt 0.3429364 0.9891112
vt 0.03246492 0.9891112
vt 0.03246489 0.9772837
vt 0.01028836 0.9772837
vt 0.01028839 0.9891112
vt 0.3429365 0.9063187
vt 0.3651129 0.9181461
vt 0.365113 0.9063187
vt 0.3429364 0.9181461
vt 0.03246492 0.9181463
vt 0.03246489 0.9063188
vt 0.01028836 0.9063188
vt 0.01028836 0.9181463
vt 0.3429365 0.9063187
vt 0.365113 0.9063187
vt 0.3651128 0.8826637
vt 0.3429363 0.8826637
vt 0.03246486 0.8826638
vt 0.03246489 0.9063188
vt 0.01028836 0.9063188
vt 0.01028833 0.8826638
vt 0.3429364 0.8708363
vt 0.3651128 0.8826637
vt 0.3651129 0.8708363
vt 0.3429363 0.8826637
vt 0.03246486 0.8826638
vt 0.03246486 0.8708364
vt 0.0102883 0.8708364
vt 0.01028833 0.8826638
vt 0.3429364 0.8708363
vt 0.3651129 0.8708363
vt 0.3651129 0.8471813
vt 0.3429364 0.8471813
vt 0.03246492 0.8471813
vt 0.03246486 0.8708364
vt 0.0102883 0.8708364
vt 0.01028836 0.8471813
vt 0.3429365 0.8353539
vt 0.3651129 0.8471813
vt 0.365113 0.8353539
vt 0.3429364 0.8471813
vt 0.03246492 0.8471813
vt 0.03246489 0.8353539
vt 0.01028836 0.8353539
vt 0.01028836 0.8471813
vt 0.3429365 0.8353539
vt 0.365113 0.8353539
vt 0.365113 0.8116988
vt 0.3429365 0.8116988
vt 0.03246495 0.8116989
vt 0.03246489 0.8353539
vt 0.01028836 0.8353539
vt 0.01028842 0.8116989
vt 0.3429365 0.7643889
vt 0.365113 0.7643889
vt 0.365113 0.7407339
vt 0.3429365 0.7407339
vt 0.03246495 0.740734
vt 0.03246492 0.7643889
vt 0.01028836 0.7643889
vt 0.01028842 0.740734
vt 0.3429365 0.7643889
vt 0.365113 0.7762164
vt 0.365113 0.7643889
vt 0.3429365 0.7762164
vt 0.03246495 0.7762164
vt 0.03246492 0.7643889
vt 0.01028836 0.7643889
vt 0.01028842 0.7762164
vt 0.3429365 0.7998713
vt 0.365113 0.7998713
vt 0.365113 0.7762164
vt 0.3429365 0.7762164
vt 0.03246495 0.7762164
vt 0.03246492 0.7998714
vt 0.01028836 0.7998714
vt 0.01028842 0.7762164
vt 0.3429365 0.7998713
vt 0.365113 0.8116988
vt 0.365113 0.7998713
vt 0.3429365 0.8116988
vt 0.03246495 0.8116989
vt 0.03246492 0.7998714
vt 0.01028836 0.7998714
vt 0.01028842 0.8116989
vt 0.3429365 0.7289064
vt 0.365113 0.7407339
vt 0.365113 0.7289064
vt 0.3429365 0.7407339
vt 0.03246495 0.740734
vt 0.03246489 0.7289065
vt 0.01028836 0.7289065
vt 0.01028842 0.740734
vt 0.3429365 0.7289064
vt 0.365113 0.7289064
vt 0.365113 0.7052515
vt 0.3429365 0.7052515
vt 0.03246495 0.7052515
vt 0.03246489 0.7289065
vt 0.01028836 0.7289065
vt 0.01028842 0.7052515
vt 0.3429365 0.6934239
vt 0.365113 0.7052515
vt 0.365113 0.6934239
vt 0.3429365 0.7052515
vt 0.03246495 0.7052515
vt 0.03246492 0.693424
vt 0.01028836 0.693424
vt 0.01028842 0.7052515
vt 0.3429365 0.6934239
vt 0.365113 0.6934239
vt 0.365113 0.6697689
vt 0.3429365 0.6697689
vt 0.03246498 0.669769
vt 0.03246492 0.693424
vt 0.01028836 0.693424
vt 0.01028845 0.669769
vt 0.3429365 0.6579415
vt 0.365113 0.6697689
vt 0.3651131 0.6579415
vt 0.3429365 0.6697689
vt 0.03246498 0.669769
vt 0.03246498 0.6579415
vt 0.01028842 0.6579416
vt 0.01028845 0.669769
vt 0.3429365 0.6579415
vt 0.3651131 0.6579415
vt 0.365113 0.6342865
vt 0.3429365 0.6342865
vt 0.03246495 0.6342865
vt 0.03246498 0.6579415
vt 0.01028842 0.6579416
vt 0.01028842 0.6342865
vt 0.03246495 0.6342865
vt 0.01028836 0.5160117
vt 0.01028842 0.6342865
vt 0.03246492 0.5160117
vt 0.3429364 0.5160116
vt 0.3429365 0.6342865
vt 0.365113 0.6342865
vt 0.3651129 0.5160116
vt 0.3850837 0.7762164
vt 0.4323937 0.8708363
vt 0.4442213 0.8944913
vt 0.4205663 0.8471813
vt 0.4797036 0.5280401
vt 0.4678761 0.5516951
vt 0.4560487 0.5753501
vt 0.3850837 0.7172799
vt 0.4442211 0.599005
vt 0.4323937 0.62266
vt 0.4205662 0.646315
vt 0.4087387 0.66997
vt 0.3969112 0.693625
vn 1 0 0
vn 1 0 0
vn 1 0 0
vn 1 0 0
vn 1 0 0
vn 1 0 0
vn 1 0 0
vn 1 0 0
vn 1 0 0
vn 1 0 0
vn 1 0 0
vn 1 0 0
vn 1 0 0
vn 1 0 0
vn 1 0 0
vn 1 0 0
vn 1 0 0
vn 1 0 0
vn 1 0 0
vn 1 0 0
vn 1 0 0
vn 1 0 0
vn 1 0 0
vn 1 0 0
vn 1 0 0
vn 1 0 0
vn 1 0 0
vn -1 0 0
vn -1 0 0
vn -1 0 0
vn -1 0 0
vn -1 0 0
vn -1 0 0
vn -1 0 0
vn -1 0 0
vn -1 0 0
vn -1 0 0
vn -1 0 0
vn -1 0 0
vn -1 0 0
vn -1 0 0
vn -1 0 0
vn -1 0 0
vn -1 0 0
vn -1 0 0
vn -1 0 0
vn -1 0 0
vn -1 0 0
vn -1 0 0
vn -1 0 0
vn -1 0 0
vn 0 1 0
vn 0 1 0
vn 0 1 0
vn 0 1 0
vn 0 1 0
vn 0 1 0
vn 0 1 0
vn 0 1 0
vn 0 0 -1
vn 0 0 -1
vn 0 0 -1
vn 0 0 -1
vn 0 0 -1
vn 0 0 -1
vn 0 0 -1
vn 0 0 -1
vn 0 1 0
vn 0 1 0
vn 0 1 0
vn 0 1 0
vn 0 1 0
vn 0 1 0
vn 0 1 0
vn 0 1 0
vn 0 0 -1
vn 0 0 -1
vn 0 0 -1
vn 0 0 -1
vn 0 0 -1
vn 0 0 -1
vn 0 0 -1
vn 0 0 -1
vn 0 0 -1
vn 0 0 -1
vn 0 0 -1
vn 0 0 -1
vn 0 0 -1
vn 0 0 -1
vn 0 0 -1
vn 0 0 -1
vn 0 1 0
vn 0 1 0
vn 0 1 0
vn 0 1 0
vn 0 1 0
vn 0 1 0
vn 0 1 0
vn 0 1 0
vn 0 0 -1
vn 0 0 -1
vn 0 0 -1
vn 0 0 -1
vn 0 0 -1
vn 0 0 -1
vn 0 0 -1
vn 0 0 -1
vn 0 1 0
vn 0 1 0
vn 0 1 0
vn 0 1 0
vn 0 1 0
vn 0 1 0
vn 0 1 0
vn 0 1 0
vn 0 0 -1
vn 0 0 -1
vn 0 0 -1
vn 0 0 -1
vn 0 0 -1
vn 0 0 -1
vn 0 0 -1
vn 0 0 -1
vn 0 1 0
vn 0 1 0
vn 0 1 0
vn 0 1 0
vn 0 1 0
vn 0 1 0
vn 0 1 0
vn 0 1 0
vn 0 1 0
vn 0 1 0
vn 0 1 0
vn 0 1 0
vn 0 1 0
vn 0 1 0
vn 0 1 0
vn 0 1 0
vn 0 0 -1
vn 0 0 -1
vn 0 0 -1
vn 0 0 -1
vn 0 0 -1
vn 0 0 -1
vn 0 0 -1
vn 0 0 -1
vn 0 1 0
vn 0 1 0
vn 0 1 0
vn 0 1 0
vn 0 1 0
vn 0 1 0
vn 0 1 0
vn 0 1 0
vn 0 0 -1
vn 0 0 -1
vn 0 0 -1
vn 0 0 -1
vn 0 0 -1
vn 0 0 -1
vn 0 0 -1
vn 0 0 -1
vn 0 0 -1
vn 0 0 -1
vn 0 0 -1
vn 0 0 -1
vn 0 0 -1
vn 0 0 -1
vn 0 0 -1
vn 0 0 -1
vn 0 1 0
vn 0 1 0
vn 0 1 0
vn 0 1 0
vn 0 1 0
vn 0 1 0
vn 0 1 0
vn 0 1 0
vn 0 0 -1
vn 0 0 -1
vn 0 0 -1
vn 0 0 -1
vn 0 0 -1
vn 0 0 -1
vn 0 0 -1
vn 0 0 -1
vn 0 1 0
vn 0 1 0
vn 0 1 0
vn 0 1 0
vn 0 1 0
vn 0 1 0
vn 0 1 0
vn 0 1 0
vn 0 0 -1
vn 0 0 -1
vn 0 0 -1
vn 0 0 -1
vn 0 0 -1
vn 0 0 -1
vn 0 0 -1
vn 0 0 -1
vn 0 1 0
vn 0 1 0
vn 0 1 0
vn 0 1 0
vn 0 1 0
vn 0 1 0
vn 0 1 0
vn 0 1 0
vn 0 0 1
vn 0 0 1
vn 0 0 1
vn 0 0 1
vn 0 0 1
vn 0 0 1
vn 0 0 1
vn 0 0 1
vn 1 0 0
vn 1 0 0
vn 1 0 0
vn 1 0 0
vn -1 0 0
vn -1 0 0
vn -1 0 0
vn -1 0 0
vn -1 0 0
vn -1 0 0
vn -1 0 0
vn -1 0 0
vn -1 0 0
g Ground_Stairs_0
f 3/3/3 2/2/2 1/1/1
f 6/6/6 5/5/5 4/4/4
f 4/4/4 8/8/8 7/7/7
f 7/7/7 10/10/10 9/9/9
f 7/7/7 9/9/9 11/11/11
f 9/9/9 12/12/12 11/11/11
f 9/9/9 13/13/13 12/12/12
f 12/12/12 14/14/14 11/11/11
f 11/11/11 16/16/16 15/15/15
f 11/11/11 15/15/15 17/17/17
f 18/18/18 11/11/11 17/17/17
f 19/19/19 18/18/18 17/17/17
f 17/17/17 20/20/20 19/19/19
f 18/18/18 22/22/22 21/21/21
f 18/18/18 21/21/21 23/23/23
f 21/21/21 24/24/24 23/23/23
f 23/23/23 26/26/26 25/25/25
f 23/23/23 27/27/27 26/26/26
f 30/30/30 29/29/29 28/28/28
f 29/29/29 32/32/32 31/31/31
f 34/34/34 33/33/33 32/32/32
f 34/34/34 36/36/36 35/35/35
f 36/36/36 38/38/38 37/37/37
f 40/40/40 39/39/39 38/38/38
f 41/41/41 40/40/40 38/38/38
f 41/41/41 38/38/38 42/42/42
f 41/41/41 42/42/42 43/43/43
f 43/43/43 44/44/44 41/41/41
f 46/46/46 45/45/45 42/42/42
f 46/46/46 48/48/48 47/47/47
f 50/50/50 49/49/49 48/48/48
f 48/48/48 49/49/49 51/51/51
f 54/54/54 53/53/53 52/52/52
f 55/55/55 54/54/54 52/52/52
f 55/55/55 52/52/52 56/56/56
f 52/52/52 57/57/57 56/56/56
f 56/56/56 57/57/57 58/58/58
f 59/59/59 56/56/56 58/58/58
f 62/62/62 61/61/61 60/60/60
f 61/61/61 63/63/63 60/60/60
f 63/63/63 64/64/64 60/60/60
f 64/64/64 65/65/65 60/60/60
f 65/65/65 64/64/64 66/66/66
f 64/64/64 67/67/67 66/66/66
f 70/70/70 69/69/69 68/68/68
f 71/71/71 70/70/70 68/68/68
f 71/71/71 68/68/68 72/72/72
f 68/68/68 73/73/73 72/72/72
f 72/72/72 73/73/73 74/74/74
f 75/75/75 72/72/72 74/74/74
f 78/78/78 77/77/77 76/76/76
f 77/77/77 79/79/79 76/76/76
f 79/79/79 80/80/80 76/76/76
f 80/80/80 81/81/81 76/76/76
f 81/81/81 80/80/80 82/82/82
f 80/80/80 83/83/83 82/82/82
f 86/86/86 85/85/85 84/84/84
f 85/85/85 87/87/87 84/84/84
f 87/87/87 88/88/88 84/84/84
f 88/88/88 89/89/89 84/84/84
f 89/89/89 88/88/88 90/90/90
f 88/88/88 91/91/91 90/90/90
f 94/94/94 93/93/93 92/92/92
f 95/95/95 94/94/94 92/92/92
f 95/95/95 92/92/92 96/96/96
f 92/92/92 97/97/97 96/96/96
f 96/96/96 97/97/97 98/98/98
f 99/99/99 96/96/96 98/98/98
f 102/102/102 101/101/101 100/100/100
f 101/101/101 103/103/103 100/100/100
f 103/103/103 104/104/104 100/100/100
f 104/104/104 105/105/105 100/100/100
f 105/105/105 104/104/104 106/106/106
f 104/104/104 107/107/107 106/106/106
f 110/110/110 109/109/109 108/108/108
f 111/111/111 110/110/110 108/108/108
f 111/111/111 108/108/108 112/112/112
f 108/108/108 113/113/113 112/112/112
f 112/112/112 113/113/113 114/114/114
f 115/115/115 112/112/112 114/114/114
f 118/118/118 117/117/117 116/116/116
f 117/117/117 119/119/119 116/116/116
f 119/119/119 120/120/120 116/116/116
f 120/120/120 121/121/121 116/116/116
f 121/121/121 120/120/120 122/122/122
f 120/120/120 123/123/123 122/122/122
f 126/126/126 125/125/125 124/124/124
f 127/127/127 126/126/126 124/124/124
f 127/127/127 124/124/124 128/128/128
f 124/124/124 129/129/129 128/128/128
f 128/128/128 129/129/129 130/130/130
f 131/131/131 128/128/128 130/130/130
f 134/134/134 133/133/133 132/132/132
f 135/135/135 134/134/134 132/132/132
f 135/135/135 132/132/132 136/136/136
f 132/132/132 137/137/137 136/136/136
f 136/136/136 137/137/137 138/138/138
f 139/139/139 136/136/136 138/138/138
f 142/142/142 141/141/141 140/140/140
f 141/141/141 143/143/143 140/140/140
f 143/143/143 144/144/144 140/140/140
f 144/144/144 145/145/145 140/140/140
f 145/145/145 144/144/144 146/146/146
f 144/144/144 147/147/147 146/146/146
f 150/150/150 149/149/149 148/148/148
f 151/151/151 150/150/150 148/148/148
f 151/151/151 148/148/148 152/152/152
f 148/148/148 153/153/153 152/152/152
f 152/152/152 153/153/153 154/154/154
f 155/155/155 152/152/152 154/154/154
f 158/158/158 157/157/157 156/156/156
f 157/157/157 159/159/159 156/156/156
f 159/159/159 160/160/160 156/156/156
f 160/160/160 161/161/161 156/156/156
f 161/161/161 160/160/160 162/162/162
f 160/160/160 163/163/163 162/162/162
f 166/166/166 165/165/165 164/164/164
f 165/165/165 167/167/167 164/164/164
f 167/167/167 168/168/168 164/164/164
f 168/168/168 169/169/169 164/164/164
f 169/169/169 168/168/168 170/170/170
f 168/168/168 171/171/171 170/170/170
f 174/174/174 173/173/173 172/172/172
f 175/175/175 174/174/174 172/172/172
f 175/175/175 172/172/172 176/176/176
f 172/172/172 177/177/177 176/176/176
f 176/176/176 177/177/177 178/178/178
f 179/179/179 176/176/176 178/178/178
f 182/182/182 181/181/181 180/180/180
f 181/181/181 183/183/183 180/180/180
f 183/183/183 184/184/184 180/180/180
f 184/184/184 185/185/185 180/180/180
f 185/185/185 184/184/184 186/186/186
f 184/184/184 187/187/187 186/186/186
f 190/190/190 189/189/189 188/188/188
f 191/191/191 190/190/190 188/188/188
f 191/191/191 188/188/188 192/192/192
f 188/188/188 193/193/193 192/192/192
f 192/192/192 193/193/193 194/194/194
f 195/195/195 192/192/192 194/194/194
f 198/198/198 197/197/197 196/196/196
f 197/197/197 199/199/199 196/196/196
f 199/199/199 200/200/200 196/196/196
f 200/200/200 201/201/201 196/196/196
f 201/201/201 200/200/200 202/202/202
f 200/200/200 203/203/203 202/202/202
f 206/206/206 205/205/205 204/204/204
f 207/207/207 206/206/206 204/204/204
f 207/207/207 204/204/204 208/208/208
f 204/204/204 209/209/209 208/208/208
f 208/208/208 209/209/209 210/210/210
f 211/211/211 208/208/208 210/210/210
f 214/214/214 213/213/213 212/212/212
f 213/213/213 215/215/215 212/212/212
f 215/215/215 216/216/216 212/212/212
f 216/216/216 217/217/217 212/212/212
f 217/217/217 216/216/216 218/218/218
f 216/216/216 219/219/219 218/218/218
f 222/222/222 221/221/221 220/220/220
f 221/221/221 223/223/223 220/220/220
f 226/226/226 225/225/225 224/224/224
f 227/227/227 226/226/226 224/224/224
f 227/227/227 229/229/229 228/228/228
f 227/227/227 230/230/230 229/229/229
f 227/227/227 231/231/231 230/230/230
f 227/227/227 232/232/232 231/231/231
