g Ground_Slope
v -3 2 1.6
v -3 -9.53694E-08 -2
v -2.625 -9.53694E-08 -2
v -2.625 2 1.6
v 2.625 2 1.6
v 2.625 -9.53694E-08 -2
v 3 2 1.6
v 3 -9.53694E-08 -2
v 2.625 2 1.6
v 3 2 1.6
v 3 2 2
v 2.625 2 2
v -2.625 2 2
v -2.625 2 1.6
v -3 2 1.6
v -3 2 2
v -2.625 2 2
v -3 -7.86805E-08 2
v -3 2 2
v -2.625 -7.86805E-08 2
v 2.625 -7.86805E-08 2
v 2.625 2 2
v 3 2 2
v 3 -7.86805E-08 2
v 3 -9.53694E-08 -2
v 3 -7.86805E-08 2
v 3 2 2
v 3 2 1.6
v -3 -9.53694E-08 -2
v -3 2 1.6
v -3 2 2
v -3 -7.86805E-08 2
vt 0.01003677 0.2629992
vt 0.01003686 0.5065221
vt 0.03221157 0.5065221
vt 0.03221148 0.2629992
vt 0.3426574 0.2629992
vt 0.3426575 0.5065219
vt 0.3648322 0.2629992
vt 0.3648322 0.5065219
vt 0.3426574 0.2629992
vt 0.3648322 0.2629992
vt 0.3648322 0.2393461
vt 0.3426574 0.2393461
vt 0.03221148 0.2393462
vt 0.03221148 0.2629992
vt 0.01003677 0.2629992
vt 0.01003677 0.2393462
vt 0.03221148 0.2393462
vt 0.01003678 0.1210811
vt 0.01003677 0.2393462
vt 0.03221148 0.1210811
vt 0.3426574 0.1210811
vt 0.3426574 0.2393461
vt 0.3648321 0.2393462
vt 0.3648322 0.1210811
vt 0.3731736 0.2573497
vt 0.3731737 0.4938799
vt 0.4914388 0.4938799
vt 0.4914388 0.470227
vt 0.4914388 0.4544754
vt 0.3731737 0.2415982
vt 0.3731737 0.2179451
vt 0.4914388 0.2179451
vn 0 0.8741572 -0.4856431
vn 0 0.8741572 -0.4856431
vn 0 0.8741572 -0.4856431
vn 0 0.8741572 -0.4856431
vn 0 0.8741572 -0.4856431
vn 0 0.8741572 -0.4856431
vn 0 0.8741572 -0.4856431
vn 0 0.8741572 -0.4856431
vn 0 1 0
vn 0 1 0
vn 0 1 0
vn 0 1 0
vn 0 1 0
vn 0 1 0
vn 0 1 0
vn 0 1 0
vn 0 0 1
vn 0 0 1
vn 0 0 1
vn 0 0 1
vn 0 0 1
vn 0 0 1
vn 0 0 1
vn 0 0 1
vn 1 0 0
vn 1 0 0
vn 1 0 0
vn 1 0 0
vn -1 0 0
vn -1 0 0
vn -1 0 0
vn -1 0 0
g Ground_Slope_0
f 3/3/3 2/2/2 1/1/1
f 4/4/4 3/3/3 1/1/1
f 3/3/3 4/4/4 5/5/5
f 6/6/6 3/3/3 5/5/5
f 6/6/6 5/5/5 7/7/7
f 8/8/8 6/6/6 7/7/7
f 11/11/11 10/10/10 9/9/9
f 12/12/12 11/11/11 9/9/9
f 12/12/12 9/9/9 13/13/13
f 9/9/9 14/14/14 13/13/13
f 13/13/13 14/14/14 15/15/15
f 16/16/16 13/13/13 15/15/15
f 19/19/19 18/18/18 17/17/17
f 18/18/18 20/20/20 17/17/17
f 20/20/20 21/21/21 17/17/17
f 21/21/21 22/22/22 17/17/17
f 22/22/22 21/21/21 23/23/23
f 21/21/21 24/24/24 23/23/23
f 27/27/27 26/26/26 25/25/25
f 28/28/28 27/27/27 25/25/25
f 31/31/31 30/30/30 29/29/29
f 32/32/32 31/31/31 29/29/29
