g Ground_Bank_50
v -3 -2.980232E-08 -1
v -3 0.5 -0.2
v -3 0.5 0.2
v -3 -2.980232E-08 1
v 2.625 0.5 -0.2
v 3 0.5 -0.2
v 3 0.5 0.2
v 2.625 0.5 0.2
v -2.625 0.5 0.2
v -2.625 0.5 -0.2
v -3 0.5 -0.2
v -3 0.5 0.2
v 3 0.5 -0.2
v 3 -2.980232E-08 -1
v 3 -2.980232E-08 1
v 3 0.5 0.2
v 2.625 0.5 -0.2
v 3 -2.980232E-08 -1
v 3 0.5 -0.2
v 2.625 -2.980232E-08 -1
v -2.625 -2.980232E-08 -1
v -2.625 0.5 -0.2
v -3 0.5 -0.2
v -3 -2.980232E-08 -1
v -2.625 0.5 0.2
v -3 -2.980232E-08 1
v -3 0.5 0.2
v -2.625 -2.980232E-08 1
v 2.625 -2.980232E-08 1
v 2.625 0.5 0.2
v 3 0.5 0.2
v 3 -2.980232E-08 1
vt 0.2831729 0.0889715
vt 0.2358932 0.0298717
vt 0.2122532 0.0298717
vt 0.1649734 0.08897126
vt 0.3952467 0.1055564
vt 0.3730843 0.1055564
vt 0.3730843 0.1291963
vt 0.3952467 0.1291964
vt 0.7055203 0.1291963
vt 0.7055203 0.1055564
vt 0.7276827 0.1055564
vt 0.7276827 0.1291964
vt 0.3172785 0.08897126
vt 0.3645582 0.02987152
vt 0.2463587 0.0298717
vt 0.2936386 0.08897132
vt 0.3952467 0.1055565
vt 0.3730843 0.02987194
vt 0.3730843 0.1055564
vt 0.3952467 0.02987194
vt 0.7055203 0.02987188
vt 0.7055203 0.1055564
vt 0.7276827 0.1055564
vt 0.7276827 0.02987188
vt 0.7055203 0.1291963
vt 0.7276827 0.2048809
vt 0.7276827 0.1291964
vt 0.7055203 0.2048809
vt 0.3952467 0.2048809
vt 0.3952467 0.1291964
vt 0.3730843 0.1291963
vt 0.3730843 0.2048809
vn -1 0 0
vn -1 0 0
vn -1 0 0
vn -1 0 0
vn 0 1 0
vn 0 1 0
vn 0 1 0
vn 0 1 0
vn 0 1 0
vn 0 1 0
vn 0 1 0
vn 0 1 0
vn 1 0 0
vn 1 0 0
vn 1 0 0
vn 1 0 0
vn 0 0.8479983 -0.529999
vn 0 0.8479983 -0.529999
vn 0 0.8479983 -0.529999
vn 0 0.8479983 -0.529999
vn 0 0.8479983 -0.529999
vn 0 0.8479983 -0.529999
vn 0 0.8479983 -0.529999
vn 0 0.8479983 -0.529999
vn 0 0.8479983 0.529999
vn 0 0.8479983 0.529999
vn 0 0.8479983 0.529999
vn 0 0.8479983 0.529999
vn 0 0.8479983 0.529999
vn 0 0.8479983 0.529999
vn 0 0.8479983 0.529999
vn 0 0.8479983 0.529999
g Ground_Bank_50_0
f 3/3/3 2/2/2 1/1/1
f 4/4/4 3/3/3 1/1/1
f 7/7/7 6/6/6 5/5/5
f 8/8/8 7/7/7 5/5/5
f 8/8/8 5/5/5 9/9/9
f 5/5/5 10/10/10 9/9/9
f 9/9/9 10/10/10 11/11/11
f 12/12/12 9/9/9 11/11/11
f 15/15/15 14/14/14 13/13/13
f 16/16/16 15/15/15 13/13/13
f 19/19/19 18/18/18 17/17/17
f 18/18/18 20/20/20 17/17/17
f 20/20/20 21/21/21 17/17/17
f 21/21/21 22/22/22 17/17/17
f 22/22/22 21/21/21 23/23/23
f 21/21/21 24/24/24 23/23/23
f 27/27/27 26/26/26 25/25/25
f 26/26/26 28/28/28 25/25/25
f 28/28/28 29/29/29 25/25/25
f 29/29/29 30/30/30 25/25/25
f 30/30/30 29/29/29 31/31/31
f 29/29/29 32/32/32 31/31/31
